<svg width="131" height="196" viewBox="0 0 131 196" fill="none" xmlns="http://www.w3.org/2000/svg">
<path fill-rule="evenodd" clip-rule="evenodd" d="M130.276 65.8612C130.276 68.0201 130.17 70.1578 129.964 72.267C129.964 72.2812 129.964 72.2954 129.957 72.3096C129.907 72.828 129.85 73.3394 129.786 73.8507C129.722 74.3833 129.651 74.9089 129.573 75.4344C129.495 75.9599 129.41 76.4784 129.317 77.0039C129.225 77.5223 129.126 78.0478 129.026 78.5663C128.863 79.3759 128.685 80.1855 128.494 80.988C128.352 81.5845 128.188 82.174 128.032 82.7634C127.982 82.9481 127.933 83.1327 127.883 83.3245C127.691 84.0133 127.485 84.7022 127.265 85.3911C127.251 85.4337 127.237 85.4763 127.222 85.526C118.899 111.767 94.3553 130.793 65.3446 130.793V195.071L32.8824 163.546L0.413086 130.686V64.9451H65.3446L0.526714 1.03621H61.6659C62.8874 0.965196 64.1089 0.929688 65.3446 0.929688C94.334 0.929688 118.871 19.9269 127.208 46.1538C127.237 46.2319 127.258 46.31 127.286 46.3881C127.492 47.0486 127.691 47.7091 127.876 48.3766C127.94 48.5897 127.989 48.8027 128.046 49.0229C128.202 49.5839 128.352 50.1521 128.486 50.7273C128.685 51.5298 128.863 52.3394 129.026 53.1561C129.126 53.6746 129.225 54.2001 129.317 54.7185C129.41 55.244 129.495 55.7625 129.573 56.288C129.651 56.8135 129.722 57.3391 129.786 57.8717C129.85 58.383 129.907 58.8944 129.957 59.4128C129.964 59.427 129.964 59.4412 129.964 59.4554C130.17 61.5646 130.276 63.7023 130.276 65.8612Z" fill="white"/>
</svg>
