<svg width="467" height="131" viewBox="0 0 467 131" fill="none" xmlns="http://www.w3.org/2000/svg">
<path fill-rule="evenodd" clip-rule="evenodd" d="M87.3878 44.316C87.3878 45.7616 87.3165 47.193 87.1786 48.6054C87.1786 48.6149 87.1786 48.6244 87.1738 48.6339C87.1406 48.9811 87.1025 49.3235 87.0597 49.6659C87.0169 50.0225 86.9693 50.3744 86.917 50.7263C86.8647 51.0782 86.8077 51.4254 86.7458 51.7773C86.684 52.1244 86.6175 52.4763 86.5509 52.8235C86.4415 53.3656 86.3226 53.9077 86.1942 54.4451C86.0991 54.8445 85.9897 55.2393 85.8851 55.634C85.8518 55.7576 85.8185 55.8812 85.7852 56.0096C85.6568 56.4709 85.5189 56.9322 85.3715 57.3935C85.362 57.422 85.3525 57.4505 85.343 57.4838C79.7696 75.0552 63.3348 87.795 43.9088 87.795V130.837L22.1716 109.727L0.429688 87.7237V43.7025H43.9088L0.505775 0.908246H41.4454C42.2634 0.860691 43.0813 0.836914 43.9088 0.836914C63.3205 0.836914 79.7506 13.5577 85.3335 31.1196C85.3525 31.1719 85.3668 31.2242 85.3858 31.2765C85.5237 31.7188 85.6568 32.1611 85.7805 32.6081C85.8233 32.7507 85.8566 32.8934 85.8946 33.0408C85.9992 33.4165 86.0991 33.7969 86.1895 34.1821C86.3226 34.7195 86.4415 35.2616 86.5509 35.8085C86.6175 36.1556 86.684 36.5075 86.7458 36.8547C86.8077 37.2066 86.8647 37.5537 86.917 37.9056C86.9693 38.2575 87.0169 38.6094 87.0597 38.9661C87.1025 39.3085 87.1406 39.6509 87.1738 39.998C87.1786 40.0075 87.1786 40.0171 87.1786 40.0266C87.3165 41.4389 87.3878 42.8703 87.3878 44.316Z" fill="url(#paint0_radial_96_13)"/>
<path fill-rule="evenodd" clip-rule="evenodd" d="M87.3878 44.316C87.3878 45.7616 87.3165 47.193 87.1786 48.6054C87.1786 48.6149 87.1786 48.6244 87.1738 48.6339C87.1406 48.9811 87.1025 49.3235 87.0597 49.6659C87.0169 50.0225 86.9693 50.3744 86.917 50.7263C86.8647 51.0782 86.8077 51.4254 86.7458 51.7773C86.684 52.1244 86.6175 52.4763 86.5509 52.8235C86.4415 53.3656 86.3226 53.9077 86.1942 54.4451C86.0991 54.8445 85.9897 55.2393 85.8851 55.634C85.8518 55.7576 85.8185 55.8812 85.7852 56.0096C85.6568 56.4709 85.5189 56.9322 85.3715 57.3935C85.362 57.422 85.3525 57.4505 85.343 57.4838C79.7696 75.0552 63.3348 87.795 43.9088 87.795V130.837L22.1716 109.727L0.429688 87.7237V43.7025H43.9088L0.505775 0.908246H41.4454C42.2634 0.860691 43.0813 0.836914 43.9088 0.836914C63.3205 0.836914 79.7506 13.5577 85.3335 31.1196C85.3525 31.1719 85.3668 31.2242 85.3858 31.2765C85.5237 31.7188 85.6568 32.1611 85.7805 32.6081C85.8233 32.7507 85.8566 32.8934 85.8946 33.0408C85.9992 33.4165 86.0991 33.7969 86.1895 34.1821C86.3226 34.7195 86.4415 35.2616 86.5509 35.8085C86.6175 36.1556 86.684 36.5075 86.7458 36.8547C86.8077 37.2066 86.8647 37.5537 86.917 37.9056C86.9693 38.2575 87.0169 38.6094 87.0597 38.9661C87.1025 39.3085 87.1406 39.6509 87.1738 39.998C87.1786 40.0075 87.1786 40.0171 87.1786 40.0266C87.3165 41.4389 87.3878 42.8703 87.3878 44.316Z" fill="white"/>
<path d="M119.573 88.8369H130.283V29.6169H119.573V88.8369ZM138.369 88.8369H148.449V67.3269C148.449 57.6069 154.029 52.2969 162.849 52.2969C170.859 52.2969 174.819 56.2569 174.819 63.2769V88.8369H184.899V61.0269C184.899 50.0469 177.969 43.6569 166.719 43.6569C156.369 43.6569 150.609 48.2469 148.179 56.2569H148.089L148.449 44.3769H138.369V88.8369ZM210.821 89.5569C225.041 89.5569 232.601 84.2469 232.601 75.2469C232.601 71.6469 230.891 68.2269 227.921 66.6069C224.771 64.8069 221.171 64.1769 214.871 63.5469C209.471 63.0069 205.241 62.5569 203.081 61.8369C200.471 60.9369 200.021 59.1369 200.021 57.2469C200.021 53.4669 203.981 50.9469 211.001 50.9469C218.381 50.9469 221.531 53.7369 221.621 59.4969H230.711C230.711 49.4169 224.591 43.6569 210.731 43.6569C198.671 43.6569 190.031 49.0569 190.031 57.9669C190.031 61.3869 191.471 64.6269 193.901 66.4269C196.601 68.4069 201.281 69.3069 208.211 69.9369C213.161 70.3869 217.391 70.8369 219.551 71.6469C221.891 72.4569 222.521 73.9869 222.521 75.6969C222.521 79.7469 218.921 82.2669 210.731 82.2669C202.091 82.2669 199.121 79.1169 199.121 73.9869H190.031C190.031 82.7169 195.521 89.5569 210.821 89.5569ZM257.953 89.3769C261.643 89.3769 264.703 88.7469 266.053 88.2969V80.2869C264.793 80.6469 261.913 81.0969 259.393 81.0969C253.273 81.0969 251.113 78.2169 251.113 72.4569V52.5669H266.413V44.3769H251.113V34.2969H242.743L242.293 40.9569C242.023 43.4769 241.393 44.3769 239.683 44.3769H234.013V52.5669H241.033V72.9969C241.033 82.8069 245.803 89.3769 257.953 89.3769ZM285.731 89.5569C295.541 89.5569 300.851 85.5969 302.291 79.0269H302.381C302.381 82.6269 302.111 86.6769 301.931 88.8369H312.011V61.7469C312.011 50.0469 304.091 43.6569 290.591 43.6569C277.901 43.6569 270.161 48.9669 270.161 57.8769C270.161 58.6869 270.251 59.8569 270.341 60.4869H279.611C279.521 59.7669 279.521 59.0469 279.521 58.7769C279.521 53.8269 283.391 51.2169 290.231 51.2169C298.061 51.2169 301.931 54.1869 301.931 60.8469V63.9969H285.461C273.581 63.9969 268.811 69.3069 268.811 76.0569C268.811 84.6969 275.561 89.5569 285.731 89.5569ZM287.801 81.9969C281.681 81.9969 278.081 79.6569 278.081 75.6069C278.081 72.0969 280.601 70.1169 286.361 70.1169H301.931V70.9269C301.931 77.7669 296.531 81.9969 287.801 81.9969ZM319.233 88.8369H330.033V70.4769H345.063C359.283 70.4769 367.023 63.0969 367.023 50.2269C367.023 36.9969 358.383 29.6169 343.713 29.6169H319.233V88.8369ZM330.033 62.8269V38.6169H343.353C351.993 38.6169 356.763 42.9369 356.763 50.7669C356.763 58.8669 352.263 62.8269 344.433 62.8269H330.033ZM387.976 89.5569C397.786 89.5569 403.096 85.5969 404.536 79.0269H404.626C404.626 82.6269 404.356 86.6769 404.176 88.8369H414.256V61.7469C414.256 50.0469 406.336 43.6569 392.836 43.6569C380.146 43.6569 372.406 48.9669 372.406 57.8769C372.406 58.6869 372.496 59.8569 372.586 60.4869H381.856C381.766 59.7669 381.766 59.0469 381.766 58.7769C381.766 53.8269 385.636 51.2169 392.476 51.2169C400.306 51.2169 404.176 54.1869 404.176 60.8469V63.9969H387.706C375.826 63.9969 371.056 69.3069 371.056 76.0569C371.056 84.6969 377.806 89.5569 387.976 89.5569ZM390.046 81.9969C383.926 81.9969 380.326 79.6569 380.326 75.6069C380.326 72.0969 382.846 70.1169 388.606 70.1169H404.176V70.9269C404.176 77.7669 398.776 81.9969 390.046 81.9969ZM428.467 107.647C437.287 107.647 441.607 103.057 446.557 89.7369L463.477 44.3769H453.577L441.067 78.6669H440.887L426.757 44.3769H415.147L434.407 88.8369H436.837C433.507 97.1169 431.347 99.4569 426.667 99.4569C424.417 99.4569 422.347 98.9169 421.087 98.5569V106.477C422.347 106.927 425.047 107.647 428.467 107.647Z" fill="white"/>
<defs>
<radialGradient id="paint0_radial_96_13" cx="0" cy="0" r="1" gradientUnits="userSpaceOnUse" gradientTransform="translate(22.4241 0.836918) rotate(80.6157) scale(131.763 790.58)">
<stop stop-color="#E64067"/>
<stop offset="0.55653" stop-color="#5926F0"/>
<stop offset="1" stop-color="#4828A0"/>
</radialGradient>
</defs>
</svg>
