<svg width="467" height="131" viewBox="0 0 467 131" fill="none" xmlns="http://www.w3.org/2000/svg">
<path fill-rule="evenodd" clip-rule="evenodd" d="M87.5079 44.1529C87.5079 45.5986 87.4366 47.0299 87.2987 48.4423C87.2987 48.4518 87.2987 48.4613 87.294 48.4708C87.2607 48.818 87.2226 49.1604 87.1798 49.5028C87.137 49.8594 87.0895 50.2113 87.0372 50.5632C86.9848 50.9151 86.9278 51.2623 86.866 51.6142C86.8041 51.9613 86.7376 52.3132 86.671 52.6604C86.5616 53.2025 86.4427 53.7446 86.3143 54.282C86.2192 54.6815 86.1098 55.0762 86.0052 55.4709C85.9719 55.5945 85.9386 55.7181 85.9054 55.8465C85.777 56.3078 85.6391 56.7691 85.4916 57.2304C85.4821 57.2589 85.4726 57.2874 85.4631 57.3207C79.8897 74.8921 63.4549 87.632 44.0289 87.632V130.674L22.2917 109.564L0.549805 87.5606V43.5394H44.0289L0.625892 0.74516H41.5656C42.3835 0.697605 43.2014 0.673828 44.0289 0.673828C63.4406 0.673828 79.8707 13.3947 85.4536 30.9565C85.4726 31.0088 85.4869 31.0611 85.5059 31.1135C85.6438 31.5557 85.777 31.998 85.9006 32.445C85.9434 32.5876 85.9767 32.7303 86.0147 32.8777C86.1194 33.2534 86.2192 33.6338 86.3096 34.019C86.4427 34.5564 86.5616 35.0985 86.671 35.6454C86.7376 35.9925 86.8041 36.3444 86.866 36.6916C86.9278 37.0435 86.9848 37.3906 87.0372 37.7425C87.0895 38.0945 87.137 38.4464 87.1798 38.803C87.2226 39.1454 87.2607 39.4878 87.294 39.8349C87.2987 39.8445 87.2987 39.854 87.2987 39.8635C87.4366 41.2759 87.5079 42.7072 87.5079 44.1529Z" fill="url(#paint0_radial_96_22)"/>
<path d="M119.693 88.6738H130.403V29.4538H119.693V88.6738ZM138.489 88.6738H148.569V67.1638C148.569 57.4438 154.149 52.1338 162.969 52.1338C170.979 52.1338 174.939 56.0938 174.939 63.1138V88.6738H185.019V60.8638C185.019 49.8838 178.089 43.4938 166.839 43.4938C156.489 43.4938 150.729 48.0838 148.299 56.0938H148.209L148.569 44.2138H138.489V88.6738ZM210.941 89.3938C225.161 89.3938 232.721 84.0838 232.721 75.0838C232.721 71.4838 231.011 68.0638 228.041 66.4438C224.891 64.6438 221.291 64.0138 214.991 63.3838C209.591 62.8438 205.361 62.3938 203.201 61.6738C200.591 60.7738 200.141 58.9738 200.141 57.0838C200.141 53.3038 204.101 50.7838 211.121 50.7838C218.501 50.7838 221.651 53.5738 221.741 59.3338H230.831C230.831 49.2538 224.711 43.4938 210.851 43.4938C198.791 43.4938 190.151 48.8938 190.151 57.8038C190.151 61.2238 191.591 64.4638 194.021 66.2638C196.721 68.2438 201.401 69.1438 208.331 69.7738C213.281 70.2238 217.511 70.6738 219.671 71.4838C222.011 72.2938 222.641 73.8238 222.641 75.5338C222.641 79.5838 219.041 82.1038 210.851 82.1038C202.211 82.1038 199.241 78.9538 199.241 73.8238H190.151C190.151 82.5538 195.641 89.3938 210.941 89.3938ZM258.073 89.2138C261.763 89.2138 264.823 88.5838 266.173 88.1338V80.1238C264.913 80.4838 262.033 80.9338 259.513 80.9338C253.393 80.9338 251.233 78.0538 251.233 72.2938V52.4038H266.533V44.2138H251.233V34.1338H242.863L242.413 40.7938C242.143 43.3138 241.513 44.2138 239.803 44.2138H234.133V52.4038H241.153V72.8338C241.153 82.6438 245.923 89.2138 258.073 89.2138ZM285.851 89.3938C295.661 89.3938 300.971 85.4338 302.411 78.8638H302.501C302.501 82.4638 302.231 86.5138 302.051 88.6738H312.131V61.5838C312.131 49.8838 304.211 43.4938 290.711 43.4938C278.021 43.4938 270.281 48.8038 270.281 57.7138C270.281 58.5238 270.371 59.6938 270.461 60.3238H279.731C279.641 59.6038 279.641 58.8838 279.641 58.6138C279.641 53.6638 283.511 51.0538 290.351 51.0538C298.181 51.0538 302.051 54.0238 302.051 60.6838V63.8338H285.581C273.701 63.8338 268.931 69.1438 268.931 75.8938C268.931 84.5338 275.681 89.3938 285.851 89.3938ZM287.921 81.8338C281.801 81.8338 278.201 79.4938 278.201 75.4438C278.201 71.9338 280.721 69.9538 286.481 69.9538H302.051V70.7638C302.051 77.6038 296.651 81.8338 287.921 81.8338ZM319.353 88.6738H330.153V70.3138H345.183C359.403 70.3138 367.143 62.9338 367.143 50.0638C367.143 36.8338 358.503 29.4538 343.833 29.4538H319.353V88.6738ZM330.153 62.6638V38.4538H343.473C352.113 38.4538 356.883 42.7738 356.883 50.6038C356.883 58.7038 352.383 62.6638 344.553 62.6638H330.153ZM388.096 89.3938C397.906 89.3938 403.216 85.4338 404.656 78.8638H404.746C404.746 82.4638 404.476 86.5138 404.296 88.6738H414.376V61.5838C414.376 49.8838 406.456 43.4938 392.956 43.4938C380.266 43.4938 372.526 48.8038 372.526 57.7138C372.526 58.5238 372.616 59.6938 372.706 60.3238H381.976C381.886 59.6038 381.886 58.8838 381.886 58.6138C381.886 53.6638 385.756 51.0538 392.596 51.0538C400.426 51.0538 404.296 54.0238 404.296 60.6838V63.8338H387.826C375.946 63.8338 371.176 69.1438 371.176 75.8938C371.176 84.5338 377.926 89.3938 388.096 89.3938ZM390.166 81.8338C384.046 81.8338 380.446 79.4938 380.446 75.4438C380.446 71.9338 382.966 69.9538 388.726 69.9538H404.296V70.7638C404.296 77.6038 398.896 81.8338 390.166 81.8338ZM428.587 107.484C437.407 107.484 441.727 102.894 446.677 89.5738L463.597 44.2138H453.697L441.187 78.5038H441.007L426.877 44.2138H415.267L434.527 88.6738H436.957C433.627 96.9538 431.467 99.2938 426.787 99.2938C424.537 99.2938 422.467 98.7538 421.207 98.3938V106.314C422.467 106.764 425.167 107.484 428.587 107.484Z" fill="white"/>
<defs>
<radialGradient id="paint0_radial_96_22" cx="0" cy="0" r="1" gradientUnits="userSpaceOnUse" gradientTransform="translate(22.5442 0.673832) rotate(80.6157) scale(131.763 790.58)">
<stop stop-color="#E64067"/>
<stop offset="0.55653" stop-color="#5926F0"/>
<stop offset="1" stop-color="#4828A0"/>
</radialGradient>
</defs>
</svg>
