<svg width="467" height="131" viewBox="0 0 467 131" fill="none" xmlns="http://www.w3.org/2000/svg">
<path fill-rule="evenodd" clip-rule="evenodd" d="M87.5079 44.316C87.5079 45.7616 87.4366 47.193 87.2987 48.6054C87.2987 48.6149 87.2987 48.6244 87.294 48.6339C87.2607 48.9811 87.2226 49.3235 87.1798 49.6659C87.137 50.0225 87.0895 50.3744 87.0372 50.7263C86.9848 51.0782 86.9278 51.4254 86.866 51.7773C86.8041 52.1244 86.7376 52.4763 86.671 52.8235C86.5616 53.3656 86.4427 53.9077 86.3143 54.4451C86.2192 54.8445 86.1098 55.2393 86.0052 55.634C85.9719 55.7576 85.9386 55.8812 85.9054 56.0096C85.777 56.4709 85.6391 56.9322 85.4916 57.3935C85.4821 57.422 85.4726 57.4505 85.4631 57.4838C79.8897 75.0552 63.4549 87.795 44.0289 87.795V130.837L22.2917 109.727L0.549805 87.7237V43.7025H44.0289L0.625892 0.908246H41.5656C42.3835 0.860691 43.2014 0.836914 44.0289 0.836914C63.4406 0.836914 79.8707 13.5577 85.4536 31.1196C85.4726 31.1719 85.4869 31.2242 85.5059 31.2765C85.6438 31.7188 85.777 32.1611 85.9006 32.6081C85.9434 32.7507 85.9767 32.8934 86.0147 33.0408C86.1194 33.4165 86.2192 33.7969 86.3096 34.1821C86.4427 34.7195 86.5616 35.2616 86.671 35.8085C86.7376 36.1556 86.8041 36.5075 86.866 36.8547C86.9278 37.2066 86.9848 37.5537 87.0372 37.9056C87.0895 38.2575 87.137 38.6094 87.1798 38.9661C87.2226 39.3085 87.2607 39.6509 87.294 39.998C87.2987 40.0075 87.2987 40.0171 87.2987 40.0266C87.4366 41.4389 87.5079 42.8703 87.5079 44.316Z" fill="url(#paint0_radial_96_10)"/>
<path d="M119.693 88.8369H130.403V29.6169H119.693V88.8369ZM138.489 88.8369H148.569V67.3269C148.569 57.6069 154.149 52.2969 162.969 52.2969C170.979 52.2969 174.939 56.2569 174.939 63.2769V88.8369H185.019V61.0269C185.019 50.0469 178.089 43.6569 166.839 43.6569C156.489 43.6569 150.729 48.2469 148.299 56.2569H148.209L148.569 44.3769H138.489V88.8369ZM210.941 89.5569C225.161 89.5569 232.721 84.2469 232.721 75.2469C232.721 71.6469 231.011 68.2269 228.041 66.6069C224.891 64.8069 221.291 64.1769 214.991 63.5469C209.591 63.0069 205.361 62.5569 203.201 61.8369C200.591 60.9369 200.141 59.1369 200.141 57.2469C200.141 53.4669 204.101 50.9469 211.121 50.9469C218.501 50.9469 221.651 53.7369 221.741 59.4969H230.831C230.831 49.4169 224.711 43.6569 210.851 43.6569C198.791 43.6569 190.151 49.0569 190.151 57.9669C190.151 61.3869 191.591 64.6269 194.021 66.4269C196.721 68.4069 201.401 69.3069 208.331 69.9369C213.281 70.3869 217.511 70.8369 219.671 71.6469C222.011 72.4569 222.641 73.9869 222.641 75.6969C222.641 79.7469 219.041 82.2669 210.851 82.2669C202.211 82.2669 199.241 79.1169 199.241 73.9869H190.151C190.151 82.7169 195.641 89.5569 210.941 89.5569ZM258.073 89.3769C261.763 89.3769 264.823 88.7469 266.173 88.2969V80.2869C264.913 80.6469 262.033 81.0969 259.513 81.0969C253.393 81.0969 251.233 78.2169 251.233 72.4569V52.5669H266.533V44.3769H251.233V34.2969H242.863L242.413 40.9569C242.143 43.4769 241.513 44.3769 239.803 44.3769H234.133V52.5669H241.153V72.9969C241.153 82.8069 245.923 89.3769 258.073 89.3769ZM285.851 89.5569C295.661 89.5569 300.971 85.5969 302.411 79.0269H302.501C302.501 82.6269 302.231 86.6769 302.051 88.8369H312.131V61.7469C312.131 50.0469 304.211 43.6569 290.711 43.6569C278.021 43.6569 270.281 48.9669 270.281 57.8769C270.281 58.6869 270.371 59.8569 270.461 60.4869H279.731C279.641 59.7669 279.641 59.0469 279.641 58.7769C279.641 53.8269 283.511 51.2169 290.351 51.2169C298.181 51.2169 302.051 54.1869 302.051 60.8469V63.9969H285.581C273.701 63.9969 268.931 69.3069 268.931 76.0569C268.931 84.6969 275.681 89.5569 285.851 89.5569ZM287.921 81.9969C281.801 81.9969 278.201 79.6569 278.201 75.6069C278.201 72.0969 280.721 70.1169 286.481 70.1169H302.051V70.9269C302.051 77.7669 296.651 81.9969 287.921 81.9969ZM319.353 88.8369H330.153V70.4769H345.183C359.403 70.4769 367.143 63.0969 367.143 50.2269C367.143 36.9969 358.503 29.6169 343.833 29.6169H319.353V88.8369ZM330.153 62.8269V38.6169H343.473C352.113 38.6169 356.883 42.9369 356.883 50.7669C356.883 58.8669 352.383 62.8269 344.553 62.8269H330.153ZM388.096 89.5569C397.906 89.5569 403.216 85.5969 404.656 79.0269H404.746C404.746 82.6269 404.476 86.6769 404.296 88.8369H414.376V61.7469C414.376 50.0469 406.456 43.6569 392.956 43.6569C380.266 43.6569 372.526 48.9669 372.526 57.8769C372.526 58.6869 372.616 59.8569 372.706 60.4869H381.976C381.886 59.7669 381.886 59.0469 381.886 58.7769C381.886 53.8269 385.756 51.2169 392.596 51.2169C400.426 51.2169 404.296 54.1869 404.296 60.8469V63.9969H387.826C375.946 63.9969 371.176 69.3069 371.176 76.0569C371.176 84.6969 377.926 89.5569 388.096 89.5569ZM390.166 81.9969C384.046 81.9969 380.446 79.6569 380.446 75.6069C380.446 72.0969 382.966 70.1169 388.726 70.1169H404.296V70.9269C404.296 77.7669 398.896 81.9969 390.166 81.9969ZM428.587 107.647C437.407 107.647 441.727 103.057 446.677 89.7369L463.597 44.3769H453.697L441.187 78.6669H441.007L426.877 44.3769H415.267L434.527 88.8369H436.957C433.627 97.1169 431.467 99.4569 426.787 99.4569C424.537 99.4569 422.467 98.9169 421.207 98.5569V106.477C422.467 106.927 425.167 107.647 428.587 107.647Z" fill="black"/>
<defs>
<radialGradient id="paint0_radial_96_10" cx="0" cy="0" r="1" gradientUnits="userSpaceOnUse" gradientTransform="translate(22.5442 0.836918) rotate(80.6157) scale(131.763 790.58)">
<stop stop-color="#E64067"/>
<stop offset="0.55653" stop-color="#5926F0"/>
<stop offset="1" stop-color="#4828A0"/>
</radialGradient>
</defs>
</svg>
