<svg width="131" height="196" viewBox="0 0 131 196" fill="none" xmlns="http://www.w3.org/2000/svg">
<path fill-rule="evenodd" clip-rule="evenodd" d="M130.413 65.8612C130.413 68.0201 130.306 70.1578 130.1 72.267C130.1 72.2812 130.1 72.2954 130.093 72.3096C130.044 72.828 129.987 73.3394 129.923 73.8507C129.859 74.3833 129.788 74.9089 129.71 75.4344C129.632 75.9599 129.546 76.4784 129.454 77.0039C129.362 77.5223 129.262 78.0478 129.163 78.5663C129 79.3759 128.822 80.1855 128.63 80.988C128.488 81.5845 128.325 82.174 128.169 82.7634C128.119 82.9481 128.069 83.1327 128.02 83.3245C127.828 84.0133 127.622 84.7022 127.402 85.3911C127.387 85.4337 127.373 85.4763 127.359 85.526C119.036 111.767 94.4921 130.793 65.4813 130.793V195.071L33.0191 163.546L0.549805 130.686V64.9451H65.4813L0.663433 1.03621H61.8026C63.0241 0.965196 64.2456 0.929688 65.4813 0.929688C94.4708 0.929688 119.007 19.9269 127.345 46.1538C127.373 46.2319 127.395 46.31 127.423 46.3881C127.629 47.0486 127.828 47.7091 128.012 48.3766C128.076 48.5897 128.126 48.8027 128.183 49.0229C128.339 49.5839 128.488 50.1521 128.623 50.7273C128.822 51.5298 129 52.3394 129.163 53.1561C129.262 53.6746 129.362 54.2001 129.454 54.7185C129.546 55.244 129.632 55.7625 129.71 56.288C129.788 56.8135 129.859 57.3391 129.923 57.8717C129.987 58.383 130.044 58.8944 130.093 59.4128C130.1 59.427 130.1 59.4412 130.1 59.4554C130.306 61.5646 130.413 63.7023 130.413 65.8612Z" fill="url(#paint0_radial_96_19)"/>
<defs>
<radialGradient id="paint0_radial_96_19" cx="0" cy="0" r="1" gradientUnits="userSpaceOnUse" gradientTransform="translate(148.329 23.2219) rotate(120.392) scale(292.106 1752.63)">
<stop stop-color="#E64067"/>
<stop offset="0.55653" stop-color="#5926F0"/>
<stop offset="1" stop-color="#4828A0"/>
</radialGradient>
</defs>
</svg>
