<svg width="131" height="196" viewBox="0 0 131 196" fill="none" xmlns="http://www.w3.org/2000/svg">
<path fill-rule="evenodd" clip-rule="evenodd" d="M130.139 65.8612C130.139 68.0201 130.033 70.1578 129.827 72.267C129.827 72.2812 129.827 72.2954 129.82 72.3096C129.77 72.828 129.713 73.3394 129.649 73.8507C129.585 74.3833 129.514 74.9089 129.436 75.4344C129.358 75.9599 129.273 76.4784 129.181 77.0039C129.088 77.5223 128.989 78.0478 128.889 78.5663C128.726 79.3759 128.549 80.1855 128.357 80.988C128.215 81.5845 128.051 82.174 127.895 82.7634C127.846 82.9481 127.796 83.1327 127.746 83.3245C127.554 84.0133 127.348 84.7022 127.128 85.3911C127.114 85.4337 127.1 85.4763 127.086 85.526C118.762 111.767 94.2186 130.793 65.2079 130.793V195.071L32.7457 163.546L0.276367 130.686V64.9451H65.2079L0.389996 1.03621H61.5292C62.7507 0.965196 63.9722 0.929688 65.2079 0.929688C94.1973 0.929688 118.734 19.9269 127.071 46.1538C127.1 46.2319 127.121 46.31 127.15 46.3881C127.355 47.0486 127.554 47.7091 127.739 48.3766C127.803 48.5897 127.853 48.8027 127.909 49.0229C128.066 49.5839 128.215 50.1521 128.35 50.7273C128.549 51.5298 128.726 52.3394 128.889 53.1561C128.989 53.6746 129.088 54.2001 129.181 54.7185C129.273 55.244 129.358 55.7625 129.436 56.288C129.514 56.8135 129.585 57.3391 129.649 57.8717C129.713 58.383 129.77 58.8944 129.82 59.4128C129.827 59.427 129.827 59.4412 129.827 59.4554C130.033 61.5646 130.139 63.7023 130.139 65.8612Z" fill="white"/>
<path fill-rule="evenodd" clip-rule="evenodd" d="M130.139 65.8612C130.139 68.0201 130.033 70.1578 129.827 72.267C129.827 72.2812 129.827 72.2954 129.82 72.3096C129.77 72.828 129.713 73.3394 129.649 73.8507C129.585 74.3833 129.514 74.9089 129.436 75.4344C129.358 75.9599 129.273 76.4784 129.181 77.0039C129.088 77.5223 128.989 78.0478 128.889 78.5663C128.726 79.3759 128.549 80.1855 128.357 80.988C128.215 81.5845 128.051 82.174 127.895 82.7634C127.846 82.9481 127.796 83.1327 127.746 83.3245C127.554 84.0133 127.348 84.7022 127.128 85.3911C127.114 85.4337 127.1 85.4763 127.086 85.526C118.762 111.767 94.2186 130.793 65.2079 130.793V195.071L32.7457 163.546L0.276367 130.686V64.9451H65.2079L0.389996 1.03621H61.5292C62.7507 0.965196 63.9722 0.929688 65.2079 0.929688C94.1973 0.929688 118.734 19.9269 127.071 46.1538C127.1 46.2319 127.121 46.31 127.15 46.3881C127.355 47.0486 127.554 47.7091 127.739 48.3766C127.803 48.5897 127.853 48.8027 127.909 49.0229C128.066 49.5839 128.215 50.1521 128.35 50.7273C128.549 51.5298 128.726 52.3394 128.889 53.1561C128.989 53.6746 129.088 54.2001 129.181 54.7185C129.273 55.244 129.358 55.7625 129.436 56.288C129.514 56.8135 129.585 57.3391 129.649 57.8717C129.713 58.383 129.77 58.8944 129.82 59.4128C129.827 59.427 129.827 59.4412 129.827 59.4554C130.033 61.5646 130.139 63.7023 130.139 65.8612Z" fill="black"/>
</svg>
