<svg width="467" height="131" viewBox="0 0 467 131" fill="none" xmlns="http://www.w3.org/2000/svg">
<path fill-rule="evenodd" clip-rule="evenodd" d="M87.3878 44.1529C87.3878 45.5986 87.3165 47.0299 87.1786 48.4423C87.1786 48.4518 87.1786 48.4613 87.1738 48.4708C87.1406 48.818 87.1025 49.1604 87.0597 49.5028C87.0169 49.8594 86.9693 50.2113 86.917 50.5632C86.8647 50.9151 86.8077 51.2623 86.7458 51.6142C86.684 51.9613 86.6175 52.3132 86.5509 52.6604C86.4415 53.2025 86.3226 53.7446 86.1942 54.282C86.0991 54.6815 85.9897 55.0762 85.8851 55.4709C85.8518 55.5945 85.8185 55.7181 85.7852 55.8465C85.6568 56.3078 85.5189 56.7691 85.3715 57.2304C85.362 57.2589 85.3525 57.2874 85.343 57.3207C79.7696 74.8921 63.3348 87.632 43.9088 87.632V130.674L22.1716 109.564L0.429688 87.5606V43.5394H43.9088L0.505775 0.74516H41.4454C42.2634 0.697605 43.0813 0.673828 43.9088 0.673828C63.3205 0.673828 79.7506 13.3947 85.3335 30.9565C85.3525 31.0088 85.3668 31.0611 85.3858 31.1135C85.5237 31.5557 85.6568 31.998 85.7805 32.445C85.8233 32.5876 85.8566 32.7303 85.8946 32.8777C85.9992 33.2534 86.0991 33.6338 86.1895 34.019C86.3226 34.5564 86.4415 35.0985 86.5509 35.6454C86.6175 35.9925 86.684 36.3444 86.7458 36.6916C86.8077 37.0435 86.8647 37.3906 86.917 37.7425C86.9693 38.0945 87.0169 38.4464 87.0597 38.803C87.1025 39.1454 87.1406 39.4878 87.1738 39.8349C87.1786 39.8445 87.1786 39.854 87.1786 39.8635C87.3165 41.2759 87.3878 42.7072 87.3878 44.1529Z" fill="url(#paint0_radial_96_31)"/>
<path fill-rule="evenodd" clip-rule="evenodd" d="M87.3878 44.1529C87.3878 45.5986 87.3165 47.0299 87.1786 48.4423C87.1786 48.4518 87.1786 48.4613 87.1738 48.4708C87.1406 48.818 87.1025 49.1604 87.0597 49.5028C87.0169 49.8594 86.9693 50.2113 86.917 50.5632C86.8647 50.9151 86.8077 51.2623 86.7458 51.6142C86.684 51.9613 86.6175 52.3132 86.5509 52.6604C86.4415 53.2025 86.3226 53.7446 86.1942 54.282C86.0991 54.6815 85.9897 55.0762 85.8851 55.4709C85.8518 55.5945 85.8185 55.7181 85.7852 55.8465C85.6568 56.3078 85.5189 56.7691 85.3715 57.2304C85.362 57.2589 85.3525 57.2874 85.343 57.3207C79.7696 74.8921 63.3348 87.632 43.9088 87.632V130.674L22.1716 109.564L0.429688 87.5606V43.5394H43.9088L0.505775 0.74516H41.4454C42.2634 0.697605 43.0813 0.673828 43.9088 0.673828C63.3205 0.673828 79.7506 13.3947 85.3335 30.9565C85.3525 31.0088 85.3668 31.0611 85.3858 31.1135C85.5237 31.5557 85.6568 31.998 85.7805 32.445C85.8233 32.5876 85.8566 32.7303 85.8946 32.8777C85.9992 33.2534 86.0991 33.6338 86.1895 34.019C86.3226 34.5564 86.4415 35.0985 86.5509 35.6454C86.6175 35.9925 86.684 36.3444 86.7458 36.6916C86.8077 37.0435 86.8647 37.3906 86.917 37.7425C86.9693 38.0945 87.0169 38.4464 87.0597 38.803C87.1025 39.1454 87.1406 39.4878 87.1738 39.8349C87.1786 39.8445 87.1786 39.854 87.1786 39.8635C87.3165 41.2759 87.3878 42.7072 87.3878 44.1529Z" fill="black"/>
<path d="M119.573 88.6738H130.283V29.4538H119.573V88.6738ZM138.369 88.6738H148.449V67.1638C148.449 57.4438 154.029 52.1338 162.849 52.1338C170.859 52.1338 174.819 56.0938 174.819 63.1138V88.6738H184.899V60.8638C184.899 49.8838 177.969 43.4938 166.719 43.4938C156.369 43.4938 150.609 48.0838 148.179 56.0938H148.089L148.449 44.2138H138.369V88.6738ZM210.821 89.3938C225.041 89.3938 232.601 84.0838 232.601 75.0838C232.601 71.4838 230.891 68.0638 227.921 66.4438C224.771 64.6438 221.171 64.0138 214.871 63.3838C209.471 62.8438 205.241 62.3938 203.081 61.6738C200.471 60.7738 200.021 58.9738 200.021 57.0838C200.021 53.3038 203.981 50.7838 211.001 50.7838C218.381 50.7838 221.531 53.5738 221.621 59.3338H230.711C230.711 49.2538 224.591 43.4938 210.731 43.4938C198.671 43.4938 190.031 48.8938 190.031 57.8038C190.031 61.2238 191.471 64.4638 193.901 66.2638C196.601 68.2438 201.281 69.1438 208.211 69.7738C213.161 70.2238 217.391 70.6738 219.551 71.4838C221.891 72.2938 222.521 73.8238 222.521 75.5338C222.521 79.5838 218.921 82.1038 210.731 82.1038C202.091 82.1038 199.121 78.9538 199.121 73.8238H190.031C190.031 82.5538 195.521 89.3938 210.821 89.3938ZM257.953 89.2138C261.643 89.2138 264.703 88.5838 266.053 88.1338V80.1238C264.793 80.4838 261.913 80.9338 259.393 80.9338C253.273 80.9338 251.113 78.0538 251.113 72.2938V52.4038H266.413V44.2138H251.113V34.1338H242.743L242.293 40.7938C242.023 43.3138 241.393 44.2138 239.683 44.2138H234.013V52.4038H241.033V72.8338C241.033 82.6438 245.803 89.2138 257.953 89.2138ZM285.731 89.3938C295.541 89.3938 300.851 85.4338 302.291 78.8638H302.381C302.381 82.4638 302.111 86.5138 301.931 88.6738H312.011V61.5838C312.011 49.8838 304.091 43.4938 290.591 43.4938C277.901 43.4938 270.161 48.8038 270.161 57.7138C270.161 58.5238 270.251 59.6938 270.341 60.3238H279.611C279.521 59.6038 279.521 58.8838 279.521 58.6138C279.521 53.6638 283.391 51.0538 290.231 51.0538C298.061 51.0538 301.931 54.0238 301.931 60.6838V63.8338H285.461C273.581 63.8338 268.811 69.1438 268.811 75.8938C268.811 84.5338 275.561 89.3938 285.731 89.3938ZM287.801 81.8338C281.681 81.8338 278.081 79.4938 278.081 75.4438C278.081 71.9338 280.601 69.9538 286.361 69.9538H301.931V70.7638C301.931 77.6038 296.531 81.8338 287.801 81.8338ZM319.233 88.6738H330.033V70.3138H345.063C359.283 70.3138 367.023 62.9338 367.023 50.0638C367.023 36.8338 358.383 29.4538 343.713 29.4538H319.233V88.6738ZM330.033 62.6638V38.4538H343.353C351.993 38.4538 356.763 42.7738 356.763 50.6038C356.763 58.7038 352.263 62.6638 344.433 62.6638H330.033ZM387.976 89.3938C397.786 89.3938 403.096 85.4338 404.536 78.8638H404.626C404.626 82.4638 404.356 86.5138 404.176 88.6738H414.256V61.5838C414.256 49.8838 406.336 43.4938 392.836 43.4938C380.146 43.4938 372.406 48.8038 372.406 57.7138C372.406 58.5238 372.496 59.6938 372.586 60.3238H381.856C381.766 59.6038 381.766 58.8838 381.766 58.6138C381.766 53.6638 385.636 51.0538 392.476 51.0538C400.306 51.0538 404.176 54.0238 404.176 60.6838V63.8338H387.706C375.826 63.8338 371.056 69.1438 371.056 75.8938C371.056 84.5338 377.806 89.3938 387.976 89.3938ZM390.046 81.8338C383.926 81.8338 380.326 79.4938 380.326 75.4438C380.326 71.9338 382.846 69.9538 388.606 69.9538H404.176V70.7638C404.176 77.6038 398.776 81.8338 390.046 81.8338ZM428.467 107.484C437.287 107.484 441.607 102.894 446.557 89.5738L463.477 44.2138H453.577L441.067 78.5038H440.887L426.757 44.2138H415.147L434.407 88.6738H436.837C433.507 96.9538 431.347 99.2938 426.667 99.2938C424.417 99.2938 422.347 98.7538 421.087 98.3938V106.314C422.347 106.764 425.047 107.484 428.467 107.484Z" fill="black"/>
<defs>
<radialGradient id="paint0_radial_96_31" cx="0" cy="0" r="1" gradientUnits="userSpaceOnUse" gradientTransform="translate(22.4241 0.673832) rotate(80.6157) scale(131.763 790.58)">
<stop stop-color="#E64067"/>
<stop offset="0.55653" stop-color="#5926F0"/>
<stop offset="1" stop-color="#4828A0"/>
</radialGradient>
</defs>
</svg>
